PathFileType	4	(X/Y/Z)	RBDS08static.trc
DataRate	CameraRate	NumFrames	NumMarkers	Units	OrigDataRate	OrigDataStartFrame	OrigNumFrames
150.000000	150.000000	4	48	mm	150.000000	93	150
Frame#	Time	L.Ankle			L.Ankle.Medial			L.ASIS			L.GTR			L.Heel.Bottom			L.Heel.Lateral			L.Heel.Top			L.HF			L.Iliac.Crest			L.Knee			L.Knee.Medial			L.MT1			L.MT2			L.MT5			L.PSIS			L.Shank.Bottom.Lateral			L.Shank.Bottom.Medial			L.Shank.Top.Lateral			L.Shank.Top.Medial			L.Thigh.Bottom.Lateral			L.Thigh.Bottom.Medial			L.Thigh.Top.Lateral			L.Thigh.Top.Medial			L.TT			R.Ankle			R.Ankle.Medial			R.ASIS			R.GTR			R.Heel.Bottom			R.Heel.Lateral			R.Heel.Top			R.HF			R.Iliac.Crest			R.Knee			R.Knee.Medial			R.MT1			R.MT2			R.MT5			R.PSIS			R.Shank.Bottom.Lateral			R.Shank.Bottom.Medial			R.Shank.Top.Lateral			R.Shank.Top.Medial			R.Thigh.Bottom.Lateral			R.Thigh.Bottom.Medial			R.Thigh.Top.Lateral			R.Thigh.Top.Medial			R.TT			
		X1	Y1	Z1	X2	Y2	Z2	X3	Y3	Z3	X4	Y4	Z4	X5	Y5	Z5	X6	Y6	Z6	X7	Y7	Z7	X8	Y8	Z8	X9	Y9	Z9	X10	Y10	Z10	X11	Y11	Z11	X12	Y12	Z12	X13	Y13	Z13	X14	Y14	Z14	X15	Y15	Z15	X16	Y16	Z16	X17	Y17	Z17	X18	Y18	Z18	X19	Y19	Z19	X20	Y20	Z20	X21	Y21	Z21	X22	Y22	Z22	X23	Y23	Z23	X24	Y24	Z24	X25	Y25	Z25	X26	Y26	Z26	X27	Y27	Z27	X28	Y28	Z28	X29	Y29	Z29	X30	Y30	Z30	X31	Y31	Z31	X32	Y32	Z32	X33	Y33	Z33	X34	Y34	Z34	X35	Y35	Z35	X36	Y36	Z36	X37	Y37	Z37	X38	Y38	Z38	X39	Y39	Z39	X40	Y40	Z40	X41	Y41	Z41	X42	Y42	Z42	X43	Y43	Z43	X44	Y44	Z44	X45	Y45	Z45	X46	Y46	Z46	X47	Y47	Z47	X48	Y48	Z48	

94	0.62	756.6929321289063	103.3460464477539	1046.984252929688	774.2395629882813	108.382682800293	1131.427856445313	902.3682250976563	1042.469360351563	1110.982177734375	832.8739013671875	938.8952026367188	1049.893310546875	671.0302124023438	44.89352798461914	1081.1484375	702.1593627929688	63.26144790649414	1036.951171875	685.3634033203125	94.75241088867188	1086.099365234375	787.3606567382813	480.7198791503906	1031.956176757813	829.0982055664063	1104.897705078125	1082.137451171875	792.2208251953125	540.0798950195313	1038.864135742188	780.7176513671875	522.5491333007813	1151.966674804688	899.685791015625	62.02133178710938	1116.508056640625	903.2709350585938	66.99711608886719	1075.315063476563	861.0836791992188	50.44813919067383	1009.404113769531	732.3009033203125	1059.56201171875	1181.65283203125	745.1455078125	176.5480346679688	1038.316284179688	707.1268920898438	177.3499145507813	1073.69775390625	740.2423095703125	256.5101623535156	1026.601928710938	704.904541015625	261.8129272460938	1066.561767578125	801.7662963867188	674.855224609375	1022.821960449219	743.0684814453125	669.5475463867188	1066.367797851563	795.1767578125	785.258056640625	1029.96435546875	742.5343017578125	779.6306762695313	1076.552124023438	836.606689453125	453.2633666992188	1080.416870117188	737.12646484375	108.3908233642578	1407.43701171875	762.7802734375	114.9016571044922	1323.942993164063	908.9861450195313	1038.644165039063	1346.681396484375	835.1006469726563	944.4671630859375	1405.080810546875	657.8062133789063	43.93262481689453	1371.119995117188	685.7031860351563	61.05741882324219	1412.808715820313	669.0248413085938	93.20793151855469	1369.06396484375	771.3237915039063	487.3025817871094	1433.230102539063	840.380615234375	1097.2060546875	1378.875366210938	775.3282470703125	543.2492065429688	1426.721435546875	764.526123046875	522.029296875	1314.058715820313	884.4960327148438	60.70368957519531	1330.538696289063	890.9013061523438	68.69223785400391	1376.704833984375	852.46826171875	56.64464950561523	1436.815063476563	735.2733764648438	1060.693481445313	1284.764526367188	716.77294921875	192.2121887207031	1418.644409179688	690.291015625	196.3658294677734	1369.792846679688	707.8214721679688	272.6814270019531	1426.9462890625	686.6135864257813	275.9219665527344	1377.40625	791.4910888671875	652.6614990234375	1436.570922851563	731.9598388671875	654.6102294921875	1392.976196289063	794.0257568359375	763.1764526367188	1434.437866210938	738.9456787109375	764.5148315429688	1392.344604492188	818.9491577148438	461.0894775390625	1385.999877929688	
95	0.6266666666666667	756.7023315429688	103.3530044555664	1046.98876953125	774.2413330078125	108.3805236816406	1131.416625976563	902.3680419921875	1042.462280273438	1111.00732421875	832.86865234375	938.8889770507813	1049.904296875	671.025634765625	44.90192031860352	1081.142700195313	702.1563720703125	63.26675033569336	1036.9501953125	685.3570556640625	94.75614166259766	1086.095947265625	787.36669921875	480.7196044921875	1031.967407226563	829.10205078125	1104.900756835938	1082.154052734375	792.207763671875	540.1085815429688	1038.869750976563	780.7241821289063	522.544189453125	1151.969970703125	899.6867065429688	62.02328872680664	1116.515380859375	903.2703857421875	67.00325012207031	1075.318969726563	861.0852661132813	50.4492301940918	1009.402221679688	732.2968139648438	1059.56103515625	1181.67626953125	745.1505737304688	176.5452728271484	1038.3212890625	707.1194458007813	177.355224609375	1073.704833984375	740.2471923828125	256.5151672363281	1026.601440429688	704.8987426757813	261.825927734375	1066.5654296875	801.75537109375	674.8590087890625	1022.839050292969	743.0704956054688	669.5413818359375	1066.374633789063	795.169677734375	785.257568359375	1029.986206054688	742.5357055664063	779.6322021484375	1076.571655273438	836.6170043945313	453.2642211914063	1080.42724609375	737.1298217773438	108.391487121582	1407.447387695313	762.7785034179688	114.9107894897461	1323.945190429688	908.9505004882813	1038.587890625	1346.939331054688	835.1087036132813	944.4722290039063	1405.095092773438	657.7974853515625	43.93333053588867	1371.110229492188	685.69921875	61.06168746948242	1412.804443359375	669.0238647460938	93.21029663085938	1369.059692382813	771.3336181640625	487.3137817382813	1433.232788085938	840.3900146484375	1097.208984375	1378.894165039063	775.3428344726563	543.2532958984375	1426.746826171875	764.5206909179688	522.03076171875	1314.062133789063	884.5783081054688	60.67852020263672	1330.498291015625	890.8959350585938	68.68447113037109	1376.708740234375	852.472900390625	56.63809967041016	1436.816772460938	735.2816162109375	1060.690307617188	1284.79150390625	716.7717895507813	192.2203674316406	1418.643920898438	690.2899169921875	196.3669738769531	1369.799560546875	707.8309326171875	272.6845703125	1426.9541015625	686.6171264648438	275.9276733398438	1377.413940429688	791.5104370117188	652.6694946289063	1436.5849609375	731.9799194335938	654.6160888671875	1392.994384765625	794.0513916015625	763.1783447265625	1434.4462890625	738.964599609375	764.5184936523438	1392.370849609375	818.9569091796875	461.098388671875	1386.024536132813	
96	0.6333333333333334	756.6987915039063	103.3450622558594	1046.986328125	774.236083984375	108.3780822753906	1131.421142578125	902.3555297851563	1042.465209960938	1111.015014648438	832.8450927734375	938.9035034179688	1049.9111328125	671.027099609375	44.90483474731445	1081.1435546875	702.1570434570313	63.27555847167969	1036.946411132813	685.3572387695313	94.76359558105469	1086.097290039063	787.3637084960938	480.7252807617188	1031.977905273438	829.095458984375	1104.890502929688	1082.169311523438	792.2083129882813	540.122314453125	1038.88232421875	780.737548828125	522.548583984375	1151.973266601563	899.6871337890625	62.02267456054688	1116.518798828125	903.2623901367188	67.00441741943359	1075.318115234375	861.0850830078125	50.43559265136719	1009.412719726563	732.2941284179688	1059.560546875	1181.6884765625	745.1475219726563	176.5521392822266	1038.325561523438	707.1266479492188	177.3479919433594	1073.701904296875	740.2403564453125	256.5143127441406	1026.606323242188	704.8981323242188	261.8179626464844	1066.5634765625	801.7374267578125	674.8660888671875	1022.852478027344	743.0628662109375	669.5444946289063	1066.387939453125	795.1669311523438	785.2671508789063	1029.99951171875	742.5324096679688	779.6372680664063	1076.587524414063	836.6111450195313	453.2703857421875	1080.442504882813	737.1206665039063	108.3936309814453	1407.44384765625	762.786865234375	114.9122619628906	1323.94677734375	908.9664306640625	1038.591430664063	1346.946655273438	835.126953125	944.4664306640625	1405.105224609375	657.809326171875	43.92877578735352	1371.108154296875	685.7033081054688	61.05956649780273	1412.804077148438	669.0227661132813	93.21039581298828	1369.063354492188	771.3408203125	487.3077087402344	1433.242553710938	840.4019165039063	1097.197509765625	1378.914672851563	775.35400390625	543.2360229492188	1426.754028320313	764.529541015625	522.0302124023438	1314.080078125	884.5158081054688	60.72533798217773	1330.501586914063	890.891357421875	68.68103790283203	1376.722045898438	852.4635620117188	56.63969421386719	1436.818725585938	735.2891235351563	1060.682373046875	1284.810668945313	716.7776489257813	192.2176361083984	1418.653198242188	690.3049926757813	196.3634796142578	1369.802612304688	707.83935546875	272.6869506835938	1426.961669921875	686.6221923828125	275.9267272949219	1377.414306640625	791.5372924804688	652.66015625	1436.58837890625	731.9910278320313	654.6150512695313	1393.011108398438	794.0730590820313	763.1757202148438	1434.478393554688	738.9755859375	764.5172729492188	1392.399291992188	818.9666748046875	461.0956420898438	1386.033081054688	
97	0.64	756.7078857421875	103.3478698730469	1046.993774414063	774.2425537109375	108.3857955932617	1131.415405273438	902.3486328125	1042.479248046875	1111.028442382813	832.8458862304688	938.904052734375	1049.915893554688	671.0299682617188	44.9062614440918	1081.140991210938	702.1641845703125	63.25690078735352	1036.950927734375	685.3544311523438	94.75987243652344	1086.085815429688	787.3545532226563	480.7289123535156	1031.992553710938	829.0919189453125	1104.904663085938	1082.17724609375	792.1907348632813	540.1173706054688	1038.878540039063	780.7322998046875	522.5547485351563	1151.9921875	899.6861572265625	62.02341842651367	1116.515502929688	903.2650146484375	67.00479125976563	1075.307861328125	861.0849609375	50.44985961914063	1009.399597167969	732.2964477539063	1059.56298828125	1181.714599609375	745.1436157226563	176.5581970214844	1038.3271484375	707.12353515625	177.3538970947266	1073.707641601563	740.2371826171875	256.519775390625	1026.607666015625	704.896240234375	261.8158569335938	1066.570922851563	801.7365112304688	674.8648681640625	1022.864440917969	743.0590209960938	669.5419921875	1066.404174804688	795.156982421875	785.2623291015625	1030.011596679688	742.5307006835938	779.6403198242188	1076.613525390625	836.614013671875	453.2718200683594	1080.440307617188	737.1338500976563	108.3935546875	1407.450073242188	762.7855834960938	114.9059906005859	1323.943237304688	909.0162353515625	1038.64013671875	1346.709838867188	835.1467895507813	944.4617919921875	1405.12451171875	657.8032836914063	43.93483734130859	1371.114868164063	685.70703125	61.06117248535156	1412.80029296875	669.0210571289063	93.20294952392578	1369.056518554688	771.3510131835938	487.3197937011719	1433.250122070313	840.4065551757813	1097.197265625	1378.930053710938	775.3710327148438	543.2470703125	1426.76708984375	764.5274047851563	522.0382690429688	1314.082397460938	884.512939453125	60.72788619995117	1330.49169921875	890.8972778320313	68.686767578125	1376.714111328125	852.4666137695313	56.64723968505859	1436.823974609375	735.2900390625	1060.685791015625	1284.8388671875	716.7832641601563	192.2173767089844	1418.6533203125	690.298095703125	196.3710784912109	1369.801391601563	707.8458862304688	272.6856079101563	1426.9609375	686.62109375	275.9277954101563	1377.431274414063	791.548095703125	652.6688842773438	1436.611572265625	732.0060424804688	654.61083984375	1393.034545898438	794.0941162109375	763.1834106445313	1434.494384765625	738.9915161132813	764.5203857421875	1392.413208007813	818.9735107421875	461.0935363769531	1386.048950195313	
